<svg viewBox="0 0 20 20" xmlns="http://www.w3.org/2000/svg" xmlns:xlink="http://www.w3.org/1999/xlink" width="20.000000" height="20.000000" fill="none">
	<rect id="arrow_back" width="20.000000" height="20.000000" x="0.000000" y="0.000000" fill="rgb(255,255,255)" fill-opacity="0" />
	<path id="Vector" d="M15.6594 9.17081L6.35107 9.17081L10.4177 5.10415C10.7427 4.77915 10.7427 4.24581 10.4177 3.92081C10.0927 3.59581 9.56774 3.59581 9.24274 3.92081L3.75107 9.41248C3.42607 9.73748 3.42607 10.2625 3.75107 10.5875L9.24274 16.0791C9.56774 16.4041 10.0927 16.4041 10.4177 16.0791C10.7427 15.7541 10.7427 15.2291 10.4177 14.9041L6.35107 10.8375L15.6594 10.8375C16.1177 10.8375 16.4927 10.4625 16.4927 10.0041C16.4927 9.54581 16.1177 9.17081 15.6594 9.17081Z" fill="rgb(37.1875,37.1875,37.1875)" fill-rule="nonzero" />
</svg>
