<svg viewBox="0 0 20 20" xmlns="http://www.w3.org/2000/svg" xmlns:xlink="http://www.w3.org/1999/xlink" width="20.000000" height="20.000000" fill="none">
	<rect id="arrow_back" width="20.000000" height="20.000000" x="0.000000" y="0.000000" fill="rgb(255,255,255)" fill-opacity="0" transform="matrix(-1,-8.74228e-08,8.74228e-08,-1,20,20)" />
	<path id="Vector" d="M12.1521 5.49375L2.84375 5.49375L6.91042 1.42708C7.23542 1.10208 7.23542 0.56875 6.91042 0.24375C6.58542 -0.08125 6.06042 -0.08125 5.73542 0.24375L0.24375 5.73542C-0.08125 6.06042 -0.08125 6.58542 0.24375 6.91042L5.73542 12.4021C6.06042 12.7271 6.58542 12.7271 6.91042 12.4021C7.23542 12.0771 7.23542 11.5521 6.91042 11.2271L2.84375 7.16042L12.1521 7.16042C12.6104 7.16042 12.9854 6.78542 12.9854 6.32708C12.9854 5.86875 12.6104 5.49375 12.1521 5.49375Z" fill="rgb(37.1875,37.1875,37.1875)" fill-rule="nonzero" transform="matrix(-1,-8.74228e-08,8.74228e-08,-1,16.4927,16.3229)" />
</svg>
