<svg viewBox="0 0 40 40" xmlns="http://www.w3.org/2000/svg" xmlns:xlink="http://www.w3.org/1999/xlink" width="40.000000" height="40.000000" fill="none" customFrame="#000000">
	<g id="Group 1">
		<path id="Vector" d="M20 40C31.0457 40 40 31.0457 40 20C40 8.9543 31.0457 0 20 0C8.9543 0 0 8.9543 0 20C0 31.0457 8.9543 40 20 40Z" fill="rgb(18,18,18)" fill-rule="evenodd" />
		<path id="B" d="M12.7099 7.72702L19.8193 7.72702C22.8609 7.72702 25.163 8.15411 26.7255 9.00827C28.288 9.86244 29.0693 11.3624 29.0693 13.5083C29.0693 14.3729 28.9286 15.1541 28.6474 15.852C28.3766 16.5499 27.9807 17.1229 27.4599 17.5708C26.9391 18.0187 26.3036 18.3104 25.5536 18.4458L25.5536 18.602C26.3141 18.7583 27.0016 19.0291 27.6161 19.4145C28.2307 19.7895 28.7203 20.3416 29.0849 21.0708C29.4599 21.7895 29.6474 22.7479 29.6474 23.9458C29.6474 25.3312 29.3089 26.5187 28.6318 27.5083C27.9547 28.4979 26.9859 29.2583 25.7255 29.7895C24.4755 30.3104 22.9859 30.5708 21.2568 30.5708L12.7099 30.5708L12.7099 7.72702ZM17.5536 16.7739L20.3661 16.7739C21.7724 16.7739 22.7464 16.5551 23.288 16.1176C23.8297 15.6697 24.1005 15.0135 24.1005 14.1489C24.1005 13.2739 23.7776 12.6489 23.1318 12.2739C22.4964 11.8885 21.4859 11.6958 20.1005 11.6958L17.5536 11.6958L17.5536 16.7739ZM17.5536 20.6176L17.5536 26.5708L20.7099 26.5708C22.1682 26.5708 23.1839 26.2895 23.7568 25.727C24.3297 25.1645 24.6161 24.4093 24.6161 23.4614C24.6161 22.8989 24.4911 22.4041 24.2411 21.977C23.9911 21.5499 23.5693 21.2166 22.9755 20.977C22.3922 20.7374 21.5849 20.6176 20.5536 20.6176L17.5536 20.6176Z" fill="rgb(255,255,255)" fill-rule="nonzero" />
	</g>
</svg>
