<svg viewBox="0 0 20 20" xmlns="http://www.w3.org/2000/svg" xmlns:xlink="http://www.w3.org/1999/xlink" width="20.000000" height="20.000000" fill="none" customFrame="#000000">
	<rect id="search" width="20.000000" height="20.000000" x="0.000000" y="0.000000" />
	<path id="Vector" d="M13.5323 12.3836L12.9299 12.3836L12.7164 12.1778C13.6314 11.1109 14.1042 9.65526 13.845 8.1082C13.4866 5.98956 11.7175 4.2977 9.58232 4.03858C6.35675 3.64229 3.64208 6.35537 4.0386 9.57905C4.29787 11.7129 5.99073 13.481 8.11061 13.8392C9.65858 14.0983 11.115 13.6258 12.1826 12.7113L12.3885 12.9247L12.3885 13.5267L15.6293 16.7657C15.942 17.0781 16.4529 17.0781 16.7655 16.7657C17.0782 16.4532 17.0782 15.9426 16.7655 15.6301L13.5323 12.3836ZM8.95703 12.3836C7.05829 12.3836 5.52557 10.8518 5.52557 8.95413C5.52557 7.0565 7.05829 5.52468 8.95703 5.52468C10.8558 5.52468 12.3885 7.0565 12.3885 8.95413C12.3885 10.8518 10.8558 12.3836 8.95703 12.3836Z" fill="rgb(18,18,18)" fill-rule="nonzero" />
</svg>
